<mxfile host="app.diagrams.net" modified="2024-07-24T12:49:45.958Z" agent="Mozilla/5.0 (Macintosh; Intel Mac OS X 10_15_7) AppleWebKit/605.1.15 (KHTML, like Gecko) Version/17.5 Safari/605.1.15" version="24.7.1" etag="QEuzBRy0L3XGsTwVfzIJ" type="github">
  <diagram name="Page-1" id="Ku7lWS_anN9N1ORzamxg">
    <mxGraphModel>
      <root>
        <mxCell id="0" />
        <mxCell id="1" parent="0" />
      </root>
    </mxGraphModel>
  </diagram>
</mxfile>
